<svg width="465" height="108" viewBox="0 0 465 108" fill="none" xmlns="http://www.w3.org/2000/svg">
<path d="M147 78V31.4545H167.091C170.545 31.4545 173.568 32.0833 176.159 33.3409C178.75 34.5985 180.765 36.4091 182.205 38.7727C183.644 41.1364 184.364 43.9697 184.364 47.2727C184.364 50.6061 183.621 53.4167 182.136 55.7045C180.667 57.9924 178.598 59.7197 175.932 60.8864C173.28 62.053 170.182 62.6364 166.636 62.6364H154.636V52.8182H164.091C165.576 52.8182 166.841 52.6364 167.886 52.2727C168.947 51.8939 169.758 51.2955 170.318 50.4773C170.894 49.6591 171.182 48.5909 171.182 47.2727C171.182 45.9394 170.894 44.8561 170.318 44.0227C169.758 43.1742 168.947 42.553 167.886 42.1591C166.841 41.75 165.576 41.5455 164.091 41.5455H159.636V78H147ZM174.273 56.6364L185.909 78H172.182L160.818 56.6364H174.273ZM217.295 31.4545H229.932V61.2727C229.932 64.8182 229.083 67.8864 227.386 70.4773C225.705 73.053 223.356 75.0455 220.341 76.4545C217.326 77.8485 213.826 78.5455 209.841 78.5455C205.826 78.5455 202.311 77.8485 199.295 76.4545C196.28 75.0455 193.932 73.053 192.25 70.4773C190.583 67.8864 189.75 64.8182 189.75 61.2727V31.4545H202.386V60.1818C202.386 61.6212 202.705 62.9091 203.341 64.0455C203.977 65.1667 204.856 66.0455 205.977 66.6818C207.114 67.3182 208.402 67.6364 209.841 67.6364C211.295 67.6364 212.583 67.3182 213.705 66.6818C214.826 66.0455 215.705 65.1667 216.341 64.0455C216.977 62.9091 217.295 61.6212 217.295 60.1818V31.4545ZM261.028 46C260.907 44.4848 260.339 43.303 259.324 42.4545C258.324 41.6061 256.801 41.1818 254.756 41.1818C253.453 41.1818 252.384 41.3409 251.551 41.6591C250.733 41.9621 250.127 42.3788 249.733 42.9091C249.339 43.4394 249.134 44.0455 249.119 44.7273C249.089 45.2879 249.188 45.7955 249.415 46.25C249.657 46.6894 250.036 47.0909 250.551 47.4545C251.066 47.803 251.725 48.1212 252.528 48.4091C253.331 48.697 254.286 48.9545 255.392 49.1818L259.21 50C261.786 50.5455 263.991 51.2652 265.824 52.1591C267.657 53.053 269.157 54.1061 270.324 55.3182C271.491 56.5152 272.347 57.8636 272.892 59.3636C273.453 60.8636 273.741 62.5 273.756 64.2727C273.741 67.3333 272.975 69.9242 271.46 72.0455C269.945 74.1667 267.778 75.7803 264.96 76.8864C262.157 77.9924 258.786 78.5455 254.847 78.5455C250.801 78.5455 247.271 77.947 244.256 76.75C241.256 75.553 238.922 73.7121 237.256 71.2273C235.604 68.7273 234.771 65.5303 234.756 61.6364H246.756C246.831 63.0606 247.188 64.2576 247.824 65.2273C248.46 66.197 249.354 66.9318 250.506 67.4318C251.672 67.9318 253.059 68.1818 254.665 68.1818C256.013 68.1818 257.142 68.0152 258.051 67.6818C258.96 67.3485 259.65 66.8864 260.119 66.2955C260.589 65.7045 260.831 65.0303 260.847 64.2727C260.831 63.5606 260.597 62.9394 260.142 62.4091C259.703 61.8636 258.975 61.3788 257.96 60.9545C256.945 60.5152 255.574 60.1061 253.847 59.7273L249.21 58.7273C245.089 57.8333 241.839 56.3409 239.46 54.25C237.097 52.1439 235.922 49.2727 235.938 45.6364C235.922 42.6818 236.71 40.0985 238.301 37.8864C239.907 35.6591 242.127 33.9242 244.96 32.6818C247.809 31.4394 251.074 30.8182 254.756 30.8182C258.513 30.8182 261.763 31.447 264.506 32.7045C267.248 33.9621 269.362 35.7348 270.847 38.0227C272.347 40.2955 273.104 42.9545 273.119 46H261.028Z" fill="black"/>
<path d="M278.562 78V31.4545H298.653C302.108 31.4545 305.131 32.0833 307.722 33.3409C310.313 34.5985 312.328 36.4091 313.767 38.7727C315.206 41.1364 315.926 43.9697 315.926 47.2727C315.926 50.6061 315.184 53.4167 313.699 55.7045C312.229 57.9924 310.161 59.7197 307.494 60.8864C304.843 62.053 301.744 62.6364 298.199 62.6364H286.199V52.8182H295.653C297.138 52.8182 298.403 52.6364 299.449 52.2727C300.509 51.8939 301.32 51.2955 301.881 50.4773C302.456 49.6591 302.744 48.5909 302.744 47.2727C302.744 45.9394 302.456 44.8561 301.881 44.0227C301.32 43.1742 300.509 42.553 299.449 42.1591C298.403 41.75 297.138 41.5455 295.653 41.5455H291.199V78H278.562ZM305.835 56.6364L317.472 78H303.744L292.381 56.6364H305.835ZM366.403 54.7273C366.403 59.9091 365.396 64.2803 363.381 67.8409C361.366 71.3864 358.646 74.0758 355.222 75.9091C351.797 77.7273 347.979 78.6364 343.767 78.6364C339.525 78.6364 335.691 77.7197 332.267 75.8864C328.858 74.0379 326.146 71.3409 324.131 67.7955C322.131 64.2348 321.131 59.8788 321.131 54.7273C321.131 49.5455 322.131 45.1818 324.131 41.6364C326.146 38.0758 328.858 35.3864 332.267 33.5682C335.691 31.7348 339.525 30.8182 343.767 30.8182C347.979 30.8182 351.797 31.7348 355.222 33.5682C358.646 35.3864 361.366 38.0758 363.381 41.6364C365.396 45.1818 366.403 49.5455 366.403 54.7273ZM353.403 54.7273C353.403 51.9394 353.032 49.5909 352.29 47.6818C351.562 45.7576 350.479 44.303 349.04 43.3182C347.616 42.3182 345.858 41.8182 343.767 41.8182C341.676 41.8182 339.911 42.3182 338.472 43.3182C337.047 44.303 335.964 45.7576 335.222 47.6818C334.494 49.5909 334.131 51.9394 334.131 54.7273C334.131 57.5152 334.494 59.8712 335.222 61.7955C335.964 63.7045 337.047 65.1591 338.472 66.1591C339.911 67.1439 341.676 67.6364 343.767 67.6364C345.858 67.6364 347.616 67.1439 349.04 66.1591C350.479 65.1591 351.562 63.7045 352.29 61.7955C353.032 59.8712 353.403 57.5152 353.403 54.7273ZM381.403 78H367.767L383.131 31.4545H400.403L415.767 78H402.131L391.949 44.2727H391.585L381.403 78ZM378.858 59.6364H404.494V69.0909H378.858V59.6364ZM438.159 78H420.25V31.4545H437.977C442.765 31.4545 446.902 32.3864 450.386 34.25C453.886 36.0985 456.583 38.7651 458.477 42.25C460.386 45.7197 461.341 49.8788 461.341 54.7273C461.341 59.5758 460.394 63.7424 458.5 67.2273C456.606 70.697 453.924 73.3636 450.455 75.2273C446.985 77.0758 442.886 78 438.159 78ZM432.886 67.2727H437.705C440.008 67.2727 441.97 66.9015 443.591 66.1591C445.227 65.4167 446.47 64.1364 447.318 62.3182C448.182 60.5 448.614 57.9697 448.614 54.7273C448.614 51.4848 448.174 48.9545 447.295 47.1364C446.432 45.3182 445.159 44.0379 443.477 43.2955C441.811 42.553 439.765 42.1818 437.341 42.1818H432.886V67.2727Z" fill="#FF0000"/>
<path d="M55.5974 8.63959L53.5 5.40579L51.4026 8.63959L45.6404 17.5235L36.763 11.7513L33.5316 9.65021L32.9308 13.4575L31.2802 23.9171L20.8225 22.2547L17.0159 21.6496L18.0156 25.3721L20.762 35.5987L10.5323 38.3336L6.80863 39.3291L9.23601 42.3231L15.9045 50.5486L7.67158 57.2078L4.67473 59.6317L8.11006 61.3797L17.5476 66.1816L12.735 75.6138L10.9832 79.0471L14.8324 79.2467L25.4072 79.7948L24.8471 90.369L24.6431 94.218L28.2408 92.8347L38.1243 89.0343L41.9135 98.9222L43.2927 102.521L46.0167 99.7943L53.5 92.3025L60.9833 99.7943L63.7073 102.521L65.0865 98.9222L68.8757 89.0343L78.7592 92.8347L82.3569 94.218L82.1529 90.369L81.5928 79.7948L92.1676 79.2467L96.0168 79.0471L94.265 75.6138L89.4524 66.1816L98.8899 61.3797L102.325 59.6317L99.3284 57.2078L91.0955 50.5486L97.764 42.3231L100.191 39.3291L96.4677 38.3336L86.238 35.5987L88.9844 25.3721L89.9841 21.6496L86.1775 22.2547L75.7198 23.9171L74.0692 13.4575L73.4684 9.65021L70.237 11.7513L61.3596 17.5235L55.5974 8.63959Z" stroke="black" stroke-width="5"/>
<circle cx="53.5" cy="54.5" r="40.5" fill="#D9D9D9" stroke="black" stroke-width="8"/>
<path d="M87.6655 36.2952L86.1655 33.6972L86.1524 33.7048L71.2903 42.1857C64.3108 46.1685 55.6269 41.1548 55.5864 33.119L55.5 15.9924H52.5L52.4136 33.119C52.3731 41.1548 43.6892 46.1685 36.7097 42.1857L21.8345 33.6972L20.3345 36.2952L35.1233 44.9333C42.0623 48.9863 42.0623 59.0137 35.1233 63.0667L20.3345 71.7048L21.8345 74.3028L36.7097 65.8143C43.6892 61.8315 52.3731 66.8452 52.4136 74.881L52.5 91.9924V92.0076H55.5V91.9924L55.5864 74.881C55.6269 66.8452 64.3108 61.8315 71.2903 65.8143L86.1524 74.2952L86.1655 74.3028L87.6655 71.7048L87.6524 71.6972L72.8767 63.0667C65.9377 59.0137 65.9377 48.9863 72.8767 44.9333L87.6524 36.3028L87.6655 36.2952Z" fill="#FF0000" stroke="#FF0000" stroke-width="3"/>
<circle cx="53.5" cy="54.5" r="40.5" stroke="black" stroke-width="8"/>
<circle cx="54" cy="54" r="5.5" fill="black" stroke="black"/>
</svg>
